<svg width="20" height="25" viewBox="0 0 20 25" fill="none" xmlns="http://www.w3.org/2000/svg">
<g clip-path="url(#clip0_1117_413)">
<path fill-rule="evenodd" clip-rule="evenodd" d="M3.82235 0.0096555H19.0723V11.5962H10.3821C9.97918 11.5956 9.59246 11.7494 9.30692 12.0236C9.02139 12.2979 8.86038 12.6703 8.85926 13.059V18.3202H3.60931C2.18767 18.4443 2.69179 20.2733 3.60931 20.1777H8.85926V21.2987H3.67048C1.53591 21.3272 0.829309 21.2173 0.829309 19.7098V18.0455C0.59753 18.0054 0.387762 17.8879 0.236683 17.7137C0.0856036 17.5394 0.00282736 17.3195 0.00282736 17.0924C0.00282736 16.8652 0.0856036 16.6453 0.236683 16.4711C0.387762 16.2968 0.59753 16.1794 0.829309 16.1392V14.6113C0.59753 14.5711 0.387762 14.4537 0.236683 14.2794C0.0856036 14.1052 0.00282736 13.8853 0.00282736 13.6581C0.00282736 13.431 0.0856036 13.2111 0.236683 13.0368C0.387762 12.8626 0.59753 12.7451 0.829309 12.705V11.1771C0.59753 11.1369 0.387762 11.0194 0.236683 10.8452C0.0856036 10.6709 0.00282736 10.451 0.00282736 10.2239C0.00282736 9.99675 0.0856036 9.77683 0.236683 9.60259C0.387762 9.42836 0.59753 9.31089 0.829309 9.27072V7.74281C0.591258 7.71524 0.373038 7.60123 0.219047 7.42397C0.0650549 7.24671 -0.0131402 7.01952 0.000370036 6.78863C-0.0121258 6.55796 0.0664356 6.33129 0.22024 6.15425C0.374043 5.97721 0.59167 5.86294 0.829309 5.83444V4.30857C0.591464 4.28053 0.373543 4.16639 0.219645 3.98924C0.0657479 3.81209 -0.0126311 3.58516 0.000370036 3.35438C-0.0126311 3.1236 0.0657479 2.89667 0.219645 2.71952C0.373543 2.54237 0.591464 2.42823 0.829309 2.4002C0.831418 0.406384 0.949537 -0.0778282 3.82235 0.0096555ZM11.2237 13.1444H19.298C19.4839 13.1455 19.6619 13.2172 19.7934 13.344C19.9249 13.4709 19.9993 13.6426 20.0004 13.8219V24.322C19.9997 24.4112 19.9807 24.4993 19.9445 24.5814C19.9083 24.6635 19.8556 24.7378 19.7894 24.8001C19.7251 24.8643 19.6481 24.9153 19.563 24.9503C19.4778 24.9852 19.3863 25.0033 19.2938 25.0036H11.2237C11.0378 25.0025 10.8598 24.9308 10.7283 24.8039C10.5968 24.6771 10.5225 24.5054 10.5214 24.3261V13.8219C10.5225 13.6426 10.5968 13.4709 10.7283 13.344C10.8598 13.2172 11.0378 13.1455 11.2237 13.1444ZM18.4184 14.8168H12.1054V16.66H18.4184V14.8168ZM17.2267 20.3283H18.3509C18.3974 20.3283 18.4419 20.3461 18.4747 20.3777C18.5076 20.4094 18.526 20.4523 18.526 20.4971V21.4147C18.526 21.4595 18.5076 21.5024 18.4747 21.5341C18.4419 21.5658 18.3974 21.5835 18.3509 21.5835H17.2267C17.1801 21.5836 17.1353 21.5658 17.1022 21.5342C17.069 21.5026 17.0501 21.4597 17.0495 21.4147V20.4971C17.0501 20.4522 17.069 20.4092 17.1022 20.3776C17.1353 20.346 17.1801 20.3283 17.2267 20.3283ZM17.2267 18.1513H18.3509C18.3976 18.1519 18.4421 18.1701 18.4749 18.2021C18.5076 18.2341 18.526 18.2773 18.526 18.3222V19.2378C18.526 19.2826 18.5076 19.3255 18.4747 19.3572C18.4419 19.3888 18.3974 19.4066 18.3509 19.4066H17.2267C17.1801 19.4066 17.1353 19.3889 17.1022 19.3573C17.069 19.3257 17.0501 19.2827 17.0495 19.2378V18.3222C17.0501 18.2771 17.0689 18.2339 17.102 18.202C17.1351 18.17 17.1799 18.1519 17.2267 18.1513ZM17.2267 22.5052H18.3509C18.3974 22.5052 18.4419 22.523 18.4747 22.5546C18.5076 22.5863 18.526 22.6293 18.526 22.674V23.5997C18.526 23.6447 18.5076 23.6879 18.4749 23.7199C18.4421 23.7519 18.3976 23.7701 18.3509 23.7706H17.2267C17.1797 23.7706 17.1346 23.7526 17.1014 23.7206C17.0682 23.6885 17.0495 23.6451 17.0495 23.5997V22.6842C17.0506 22.6394 17.0697 22.5968 17.1027 22.5653C17.1358 22.5338 17.1802 22.5159 17.2267 22.5154V22.5052ZM14.6956 20.3283H15.8198C15.8664 20.3283 15.9112 20.346 15.9444 20.3776C15.9775 20.4092 15.9964 20.4522 15.997 20.4971V21.4147C15.9964 21.4597 15.9775 21.5026 15.9444 21.5342C15.9112 21.5658 15.8664 21.5836 15.8198 21.5835H14.6871C14.6405 21.5836 14.5958 21.5658 14.5626 21.5342C14.5294 21.5026 14.5105 21.4597 14.51 21.4147V20.4971C14.5105 20.4522 14.5294 20.4092 14.5626 20.3776C14.5958 20.346 14.6405 20.3283 14.6871 20.3283H14.6956ZM14.6956 18.1513H15.8198C15.8666 18.1519 15.9114 18.17 15.9445 18.202C15.9776 18.2339 15.9964 18.2771 15.997 18.3222V19.2378C15.9964 19.2827 15.9775 19.3257 15.9444 19.3573C15.9112 19.3889 15.8664 19.4066 15.8198 19.4066H14.6871C14.6405 19.4066 14.5958 19.3889 14.5626 19.3573C14.5294 19.3257 14.5105 19.2827 14.51 19.2378V18.3222C14.5105 18.2771 14.5294 18.2339 14.5625 18.202C14.5956 18.17 14.6403 18.1519 14.6871 18.1513H14.6956ZM14.6956 22.5052H15.8198C15.8664 22.5052 15.9112 22.5229 15.9444 22.5545C15.9775 22.5861 15.9964 22.6291 15.997 22.674V23.5997C15.9964 23.6449 15.9776 23.6881 15.9445 23.72C15.9114 23.7519 15.8666 23.7701 15.8198 23.7706H14.6871C14.6402 23.7706 14.5951 23.7526 14.5619 23.7206C14.5286 23.6885 14.51 23.6451 14.51 23.5997V22.6842C14.5111 22.6394 14.5301 22.5968 14.5632 22.5653C14.5962 22.5338 14.6407 22.5159 14.6871 22.5154L14.6956 22.5052ZM12.194 18.1513H13.3182C13.3652 18.1513 13.4103 18.1693 13.4435 18.2014C13.4767 18.2334 13.4954 18.2769 13.4954 18.3222V19.2378C13.4949 19.2827 13.4759 19.3257 13.4428 19.3573C13.4096 19.3889 13.3649 19.4066 13.3182 19.4066H12.194C12.1476 19.4066 12.103 19.3888 12.0702 19.3572C12.0374 19.3255 12.0189 19.2826 12.0189 19.2378V18.3222C12.0189 18.2773 12.0373 18.2341 12.0701 18.2021C12.1029 18.1701 12.1474 18.1519 12.194 18.1513ZM12.194 22.5052H13.3182C13.3649 22.5052 13.4096 22.5229 13.4428 22.5545C13.4759 22.5861 13.4949 22.6291 13.4954 22.674V23.5997C13.4954 23.6451 13.4767 23.6885 13.4435 23.7206C13.4103 23.7526 13.3652 23.7706 13.3182 23.7706H12.194C12.1481 23.7691 12.1047 23.7504 12.0728 23.7185C12.0409 23.6866 12.0231 23.644 12.0232 23.5997V22.6842C12.0237 22.6396 12.0423 22.597 12.075 22.5654C12.1077 22.5338 12.152 22.5159 12.1982 22.5154L12.194 22.5052ZM12.194 20.3283H13.3182C13.3649 20.3283 13.4096 20.346 13.4428 20.3776C13.4759 20.4092 13.4949 20.4522 13.4954 20.4971V21.4147C13.4949 21.4597 13.4759 21.5026 13.4428 21.5342C13.4096 21.5658 13.3649 21.5836 13.3182 21.5835H12.194C12.1476 21.5835 12.103 21.5658 12.0702 21.5341C12.0374 21.5024 12.0189 21.4595 12.0189 21.4147V20.4971C12.0189 20.4523 12.0374 20.4094 12.0702 20.3777C12.103 20.3461 12.1476 20.3283 12.194 20.3283ZM19.298 13.5961H11.2237C11.162 13.5966 11.103 13.6206 11.0596 13.6629C11.0161 13.7052 10.9917 13.7624 10.9917 13.8219V24.322C10.9917 24.3815 11.0161 24.4387 11.0596 24.481C11.103 24.5233 11.162 24.5473 11.2237 24.5478H19.298C19.3597 24.5468 19.4187 24.5227 19.4623 24.4805C19.506 24.4384 19.531 24.3816 19.5321 24.322V13.8219C19.531 13.7623 19.506 13.7055 19.4623 13.6634C19.4187 13.6213 19.3597 13.5971 19.298 13.5961ZM10.1797 4.32688C10.0726 4.31266 9.9753 4.25936 9.9078 4.17797C9.8403 4.09658 9.80775 3.99331 9.81686 3.88946C9.80944 3.78661 9.84276 3.68487 9.9101 3.60481C9.97745 3.52475 10.0738 3.47233 10.1797 3.45814H16.5644C16.6714 3.47236 16.7687 3.52566 16.8362 3.60705C16.9037 3.68844 16.9363 3.79171 16.9272 3.89556C16.9363 3.99942 16.9037 4.10268 16.8362 4.18407C16.7687 4.26546 16.6714 4.31876 16.5644 4.33298L10.1797 4.32688ZM10.1797 8.76006C10.0761 8.73839 9.98332 8.68318 9.91679 8.6036C9.85027 8.52402 9.81399 8.42487 9.81399 8.32264C9.81399 8.22042 9.85027 8.12127 9.91679 8.04169C9.98332 7.96211 10.0761 7.9069 10.1797 7.88523H14.3771C14.4807 7.9069 14.5734 7.96211 14.6399 8.04169C14.7065 8.12127 14.7428 8.22042 14.7428 8.32264C14.7428 8.42487 14.7065 8.52402 14.6399 8.6036C14.5734 8.68318 14.4807 8.73839 14.3771 8.76006H10.1797ZM10.1797 6.54245C10.0722 6.52822 9.97458 6.47463 9.90703 6.3928C9.83947 6.31097 9.80718 6.20719 9.81686 6.103C9.80832 5.99948 9.84113 5.89672 9.90857 5.81578C9.97602 5.73483 10.073 5.68183 10.1797 5.66761H15.2524C15.3579 5.68323 15.4534 5.73683 15.5195 5.81763C15.5857 5.89842 15.6176 6.00039 15.6089 6.103C15.618 6.20685 15.5855 6.31012 15.518 6.39151C15.4505 6.4729 15.3531 6.5262 15.2461 6.54042L10.1797 6.54245ZM5.69537 8.81093C5.51608 8.80075 5.48445 8.78651 5.3136 8.76413C5.14275 8.74175 5.01408 8.72344 4.87276 8.69903C4.73144 8.67461 4.59645 8.6441 4.46567 8.61154V7.49053C4.63652 7.50477 4.82214 7.51698 5.02041 7.52512C5.21868 7.53326 5.41906 7.54343 5.62366 7.5475C5.82825 7.55157 6.01809 7.5475 6.19316 7.5475C6.33475 7.55051 6.47625 7.53822 6.61501 7.51088C6.70762 7.49555 6.79389 7.45536 6.8639 7.39491C6.89247 7.36558 6.91466 7.33103 6.92915 7.29329C6.94365 7.25555 6.95015 7.21539 6.94827 7.17518V7.0877C6.95105 7.04134 6.94169 6.99505 6.92105 6.95309C6.9004 6.91114 6.86915 6.87487 6.83015 6.84763C6.74906 6.79368 6.65232 6.7659 6.55384 6.76828H6.15308C5.56811 6.76828 5.12517 6.64418 4.82425 6.39597C4.52333 6.14776 4.37216 5.73272 4.37076 5.15085V4.91892C4.35365 4.6961 4.38961 4.47247 4.47589 4.26512C4.56217 4.05777 4.69648 3.87221 4.86854 3.72263C5.09209 3.51124 5.38382 3.37988 5.69537 3.35031V2.88645H6.82593V3.33404C7.24033 3.3631 7.65079 3.43124 8.05141 3.53749V4.6585C7.8194 4.64019 7.55996 4.62391 7.26888 4.61171C6.9778 4.5995 6.71625 4.5934 6.48002 4.5934C6.35345 4.59222 6.22705 4.60244 6.10246 4.62391C6.00677 4.63541 5.91736 4.67603 5.84724 4.73988C5.81487 4.77402 5.79011 4.81421 5.77451 4.85795C5.75891 4.9017 5.75279 4.94807 5.75654 4.99419V5.06744C5.75312 5.11937 5.7622 5.17137 5.78305 5.21937C5.80391 5.26736 5.83598 5.31006 5.87677 5.34413C5.98534 5.41459 6.11543 5.44758 6.24589 5.43772H6.75C7.05588 5.4305 7.35839 5.50064 7.62745 5.64117C7.85409 5.76149 8.03841 5.94423 8.15688 6.16607C8.27814 6.39949 8.33893 6.65779 8.33405 6.91884V7.15891C8.35829 7.52665 8.27186 7.89333 8.08516 8.21482C7.91908 8.45166 7.66948 8.62228 7.38278 8.69496C7.20691 8.75676 7.02311 8.7951 6.83648 8.80889V9.32769H5.69537V8.81093Z" fill="#6100FF"/>
</g>
<defs>
<clipPath id="clip0_1117_413">
<rect width="20" height="25" fill="white"/>
</clipPath>
</defs>
</svg>
