<svg width="13" height="15" viewBox="0 0 13 15" fill="none" xmlns="http://www.w3.org/2000/svg">
<g clip-path="url(#clip0_3_7000)">
<path fill-rule="evenodd" clip-rule="evenodd" d="M1.20133 1.1759H5.39888V0.458984C5.39888 0.206543 5.584 0 5.81099 0H8.12848C8.35537 0 8.5406 0.206421 8.5406 0.458984V1.17603H12.687C12.8287 1.17603 12.9442 1.30505 12.9442 1.46277V2.86829H0.944092V1.46265C0.944092 1.30493 1.05973 1.1759 1.20133 1.1759ZM1.89656 3.61389H12.0812C12.2935 3.61389 12.4863 3.80908 12.4671 4.04407L11.6052 14.5701C11.5861 14.8052 11.4309 14.9999 11.219 14.9999H2.74655C2.53457 14.9999 2.37915 14.8055 2.3603 14.5701L1.51031 4.04407C1.49146 3.80823 1.68404 3.61389 1.89656 3.61389ZM8.51528 5.24878H9.59664V13.2217H8.51528V5.24878ZM4.24013 5.24878H5.32161V13.2217H4.24013V5.24878ZM6.37743 5.24878H7.45913V13.2217H6.37743V5.24878Z" fill="#5E5A72" fill-opacity="0.5"/>
</g>
<defs>
<clipPath id="clip0_3_7000">
<rect width="12" height="15" fill="white" transform="translate(0.944092)"/>
</clipPath>
</defs>
</svg>
