<svg width="20" height="15" viewBox="0 0 20 15" fill="none" xmlns="http://www.w3.org/2000/svg">
<path fill-rule="evenodd" clip-rule="evenodd" d="M13.9909 1.71974C14.7233 1.66353 15.5111 1.79409 15.9977 2.11143C16.5527 2.47228 16.8799 3.10514 16.8799 4.10792V4.98558C16.8799 5.37908 16.8669 5.38996 16.9954 5.59668C17.0931 5.75444 17.1159 5.77257 17.1468 5.96479C17.1908 6.21684 17.1924 6.47252 17.1956 6.73546C17.2005 7.14528 17.0605 7.26314 16.8734 7.59499L16.0775 9.00758C15.8301 9.44823 15.6055 9.7166 15.7031 10.2751C15.9212 11.5136 19.1064 12.2118 19.9967 12.6524V14.9989H17.4072C17.4072 14.5564 17.5537 12.3568 17.334 12.1755C14.6631 9.97954 11.1263 11.2017 13.8281 6.5106C14.0413 6.1298 14.056 5.96841 14.1976 5.52596C14.4596 4.71358 14.4271 2.99271 13.9909 1.71974ZM6.00911 1.71974C5.27669 1.66353 4.48893 1.79409 4.00228 2.11143C3.44727 2.47228 3.12012 3.10514 3.12012 4.10792V4.98558C3.12012 5.37908 3.13314 5.38996 3.00456 5.59668C2.9069 5.75444 2.88574 5.77257 2.85319 5.96479C2.80924 6.21684 2.80762 6.47252 2.80436 6.73546C2.79948 7.14528 2.93945 7.26314 3.12663 7.59499L3.92253 9.00758C4.16992 9.44823 4.39453 9.7166 4.29688 10.2751C4.07389 11.5154 0.890299 12.2136 0 12.6542V15.0007H2.58789C2.58789 14.5582 2.44141 12.3586 2.66113 12.1773C5.33203 9.98135 8.86882 11.2035 6.16699 6.51242C5.95378 6.13162 5.93913 5.97023 5.79753 5.52777C5.54036 4.71358 5.57292 2.99271 6.00911 1.71974ZM3.26335 15.0007V12.6633C4.26758 12.1664 8.19661 11.0675 8.44238 9.66945C8.55306 9.04022 8.29753 8.73558 8.01921 8.23872L7.12077 6.64479C6.91081 6.26943 6.7513 6.13706 6.75781 5.67465C6.76107 5.41534 6.76432 5.15785 6.7985 4.90761C6.84082 4.58846 6.87663 4.57758 7.02637 4.32008C7.12728 4.14781 7.11589 4.09523 7.11589 3.6981V2.70802C7.11589 1.5638 7.49349 0.849339 8.13151 0.443149C9.06413 -0.149815 10.957 -0.149815 11.8848 0.455842C12.5098 0.863845 12.8809 1.57649 12.8809 2.70802V3.6981C12.8809 4.14419 12.8662 4.15507 13.0111 4.38899C13.1217 4.5667 13.1462 4.58846 13.1836 4.80425C13.2324 5.08713 13.2357 5.37908 13.2389 5.67465C13.2454 6.13706 13.0876 6.27124 12.876 6.64479L11.9792 8.23872C11.7008 8.73558 11.4453 9.04022 11.5576 9.66945C11.805 11.0675 15.3988 11.8545 16.4014 12.3532V15.0025L3.26335 15.0007Z" fill="#6100FF"/>
</svg>
