<svg width="20" height="19" viewBox="0 0 20 19" fill="none" xmlns="http://www.w3.org/2000/svg">
<path fill-rule="evenodd" clip-rule="evenodd" d="M3.00164 0H17.6409C18.8409 0 19.8213 0.981932 19.8213 2.18035V16.8196C19.8213 18.0181 18.8394 19 17.6409 19H3.00164C1.80322 19 0.821289 18.0196 0.821289 16.8196V2.18035C0.821289 0.980386 1.80167 0 3.00164 0ZM13.4008 4.38854L15.3724 6.36168C15.6322 6.62147 15.6322 7.04826 15.3724 7.3065L14.2807 8.39823L11.3628 5.48026L12.4545 4.38854C12.7143 4.12875 13.1395 4.12875 13.4008 4.38854ZM8.91488 13.7594C8.12625 14.0037 7.33606 14.2465 6.54588 14.4924C4.68871 15.0661 4.69799 15.448 5.20364 13.662L6.00156 10.8476L5.99847 10.8446L10.8107 6.03231L13.7287 8.95027L8.91952 13.761L8.91488 13.7594ZM6.50103 11.344L8.41696 13.2599C7.89893 13.4192 7.37936 13.5785 6.85979 13.7409C5.64126 14.1151 5.64745 14.3671 5.97837 13.1935L6.50103 11.344Z" fill="#5E5A72" fill-opacity="0.5"/>
</svg>
