<svg width="16" height="15" viewBox="0 0 16 15" fill="none" xmlns="http://www.w3.org/2000/svg">
<path fill-rule="evenodd" clip-rule="evenodd" d="M12.4016 0.270992L15.17 3.00777C15.5355 3.36909 15.5355 3.9599 15.17 4.32123L13.6389 5.83488L9.54187 1.78464L11.073 0.270992C11.4385 -0.0903307 12.0361 -0.0903307 12.4016 0.270992ZM9.1097 6.37076V6.37198C9.2233 6.48428 9.2801 6.63321 9.2801 6.77969C9.2801 6.92617 9.2233 7.07387 9.1097 7.1874V7.18862L9.10846 7.18984L5.39426 10.8629H5.39303C5.36092 10.8946 5.32512 10.9215 5.28931 10.9447H5.28807C5.25103 10.9679 5.21275 10.9862 5.17324 10.9996C4.96827 11.0704 4.72995 11.024 4.56696 10.8629H4.56573V10.8617C4.53363 10.8299 4.50646 10.7945 4.483 10.7591V10.7579C4.45954 10.7213 4.44102 10.6834 4.42743 10.6444C4.35582 10.4417 4.40274 10.2062 4.56449 10.045V10.0438L8.27993 6.37076H8.28117C8.39476 6.25845 8.54541 6.2023 8.69358 6.2023C8.84175 6.2023 8.99116 6.25845 9.10599 6.37076H9.1097ZM6.05981 13.3189C4.95098 13.6583 3.84339 13.9964 2.73456 14.3357C0.129184 15.1328 0.140298 15.6638 0.851528 13.1834L1.97147 9.27721L1.96776 9.27355L8.76643 2.55123L12.8634 6.60147L6.06351 13.3238L6.05981 13.3189ZM2.67035 9.96812L5.36092 12.628C4.63241 12.8502 3.90389 13.0723 3.17661 13.2933C1.46521 13.8145 1.47262 14.1636 1.93813 12.534L2.67035 9.96812Z" fill="#5E5A72" fill-opacity="0.5"/>
</svg>
