<svg width="21" height="20" viewBox="0 0 21 20" fill="none" xmlns="http://www.w3.org/2000/svg">
<path fill-rule="evenodd" clip-rule="evenodd" d="M1.47216 0.975947C2.09859 0.35098 2.94732 0 3.83219 0C4.71705 0 5.56579 0.35098 6.19221 0.975947L10.5054 5.28747L14.8071 0.975947C15.4338 0.351377 16.2824 0.000670945 17.1672 0.000670945C18.0519 0.000670945 18.9005 0.351377 19.5272 0.975947C20.1521 1.60237 20.5031 2.45111 20.5031 3.33597C20.5031 4.22084 20.1521 5.06958 19.5272 5.696L15.2108 9.99938L19.5223 14.3109C20.1469 14.9375 20.4976 15.7862 20.4976 16.6709C20.4976 17.5557 20.1469 18.4043 19.5223 19.031C18.8957 19.6555 18.047 20.0062 17.1623 20.0062C16.2775 20.0062 15.4289 19.6555 14.8022 19.031L10.4956 14.7146L6.19221 19.0261C5.56558 19.6506 4.71692 20.0014 3.83219 20.0014C2.94745 20.0014 2.0988 19.6506 1.47216 19.0261C0.847594 18.3994 0.496887 17.5508 0.496887 16.6661C0.496887 15.7813 0.847594 14.9327 1.47216 14.306L5.78043 9.99938L1.47216 5.68623C0.850172 5.06022 0.501078 4.21357 0.501078 3.33109C0.501078 2.44861 0.850172 1.60196 1.47216 0.975947Z" fill="#DB8484"/>
</svg>
